# xmcd
#
# Track frame offsets:
#	150
#	22992
#	46356
#	71492
#	94432
#	117338
#	132100
#	152574
#	177516
#	196952
#
# Disc length: 2815
#
# Revision: 1
# Processed by: cddbd v1.5.1PL0 Copyright (c) Steve Scherf et al.
# Submitted via: CDex 1.50
# Normalized: r0:TRMNUM
#
DISCID=850afd0a
DTITLE=Indivinity - The Dream
DYEAR=2002
DGENRE=New Age
TTITLE0=The Moment
TTITLE1=Angel
TTITLE2=Temple
TTITLE3=Beautifuk
TTITLE4=Wrapped in Love
TTITLE5=Looking For You
TTITLE6=Other Way
TTITLE7=Freedom
TTITLE8=Heaven
TTITLE9=The Dream
EXTD=YEAR: 2002
EXTT0=
EXTT1=
EXTT2=
EXTT3=
EXTT4=
EXTT5=
EXTT6=
EXTT7=
EXTT8=
EXTT9=
PLAYORDER=
